<?xml version="1.0" standalone="no"?>
<!DOCTYPE svg PUBLIC "-//W3C//DTD SVG 1.1//EN" "http://www.w3.org/Graphics/SVG/1.1/DTD/svg11.dtd" >
<svg xmlns="http://www.w3.org/2000/svg" xmlns:xlink="http://www.w3.org/1999/xlink" version="1.1">
<metadata>
Created by FontForge 20201107 at Tue Oct 11 22:56:14     35720901
 By Jimmy Wärting
Copyright 1995 Southern Software, Inc., All Rights Reserved
</metadata>
<defs>
<font id="BadDogSCapsSSKBold" horiz-adv-x="505" >
  <font-face 
    font-family="BadDogSCapsSSK"
    font-weight="700"
    font-variant="small-caps"
    font-stretch="normal"
    units-per-em="1000"
    panose-1="0 0 7 0 0 0 0 0 0 0"
    ascent="800"
    descent="-200"
    x-height="646"
    cap-height="807"
    bbox="4 -159 1200 813"
    underline-thickness="20"
    underline-position="-143"
    unicode-range="U+0020-201D"
  />
<missing-glyph horiz-adv-x="500" 
d="M63 0v805h375v-805h-375zM125 63h250v680h-250v-680z" />
    <glyph glyph-name=".notdef" horiz-adv-x="500" 
d="M63 0v805h375v-805h-375zM125 63h250v680h-250v-680z" />
    <glyph glyph-name=".null" horiz-adv-x="0" 
 />
    <glyph glyph-name="glyph2" 
 />
    <glyph glyph-name="space" unicode=" " 
 />
    <glyph glyph-name="exclam" unicode="!" horiz-adv-x="294" 
d="M281 153q-1 -7 -9 -28.5t-8 -28.5q0 -15 13 -27q-20 0 -31 -24q-16 -34 -20 -38q-7 1 -36 4q-23 3 -36 3q-28 0 -49 -14q-5 19 -47 46q-37 23 -37 60q0 26 26 73q19 32 38 63q-5 18 -14 34q-17 -11 -46 -17q0 54 -5 163t-5 164q0 187 30 212q9 -1 37 -9q23 -6 37 -6
q15 0 29 8.5t28 16.5q27 -13 84 -33l-2 -19q0 -21 19 -33q-24 -8 -32 -18l-1 -11l4 -14l20 -9l9 1q-12 -51 -12 -120q0 -32 3.5 -96.5t3.5 -96.5q0 -46 -12 -100q-12 19 -36 20l-10 -5q-4 -10 -4 -20q0 -29 28 -55q36 -31 43 -46z" />
    <glyph glyph-name="numbersign" unicode="#" horiz-adv-x="722" 
d="M705 684l-22 -44q-11 -25 -8 -46q-30 -3 -77 -19q-36 -13 -73 -27q13 -19 16 -34l-3 -9l-25 -16q0 -20 14.5 -38t33.5 -18q6 0 31 13t34 16l15 -6l7 -21q0 -19 -14 -46t-28 -39q-19 -5 -47 -3q-52 2 -48 2q-10 0 -28 -11q-6 -10 -7 -22q-1 -8 1 -23t2 -22l-3 -17
q-19 -23 -79 -23q-18 0 -44 8l-11 18q1 16 16.5 31.5t32.5 20.5q-21 39 -65 39q-46 0 -64 -20q-10 -11 -19 -46.5t-25 -51.5l-24 -7q-3 0 -74 11l20 8q15 11 15 47q0 37 -27 47q-13 5 -57 5l-26 6l-14 23q11 52 35 87q14 4 34 3q38 -2 34 -2l26 3q25 20 37 73l-13 23
q-20 8 -66 8q-18 0 -37 6l-6 12l2 9q10 9 29 16q-16 16 -16 33q0 12 10 26t21 14q18 0 69 -16l18 7q12 21 26.5 44.5t36.5 26.5q-7 17 -8 19q-6 10 -15 11l-8 1q5 0 8 -1h30q32 -1 52 15q20 -70 22 -74q19 -43 52 -43q32 0 54 31q16 29 33 59t40 30q43 0 72 -51q1 -7 -6 -26
q-9 -24 -9 -26l13 -10q36 -3 104 6zM445 526q0 49 -65 49q-35 0 -65 -11l3 -15q0 -13 -14 -41.5t-14 -35.5q0 -14 11 -29q10 10 24 10q7 0 20 -1.5t20 -1.5q30 0 55 23t25 53z" />
    <glyph glyph-name="dollar" unicode="$" horiz-adv-x="668" 
d="M572 308q0 -35 -22 -65q3 -8 9 -25q-45 -90 -147 -120q1 -44 1 -46q2 -27 11 -45q-19 8 -42 8q-19 0 -54.5 -8t-53.5 -8q-44 0 -71 35q23 17 23 38q0 19 -23 32l7 4q-26 1 -75 13l14 28q-63 0 -63 38q0 28 6 75l15 16l162 -37q5 -1 10 -1q37 0 63 34q-5 10 -20.5 26.5
t-21.5 26.5q-19 -7 -39 -7q-33 0 -61 16.5t-37 46.5l-5 -3q-8 -8 -23 -11l23 11q2 2 3 4l-11 20q-64 20 -64 91q0 43 36 80l-28 14q11 4 29 36q21 41 35 55q25 29 60 29q11 0 24 -3v25q0 26 -11 52q19 -8 43 -8q18 0 54 8t54 8q45 0 70 -36q-23 -15 -23 -39q32 0 70 -26
t38 -56q0 -25 -3 -59l-14 1l-21 -9l-11 -33l-18 -3q-11 4 -32 23q-18 16 -37 16q-7 0 -37 -4q-23 -2 -38 1l-14 -12l-10 -26l12 -14q74 0 163 -65q95 -69 95 -142z" />
    <glyph glyph-name="ampersand" unicode="&#x26;" horiz-adv-x="878" 
d="M838 0l-15 30q-107 -27 -145 -27q-109 0 -175 81q-9 -41 -34 -53q-17 -9 -61 -9q-18 0 -50 -22q-9 13 -22 28l-81 -2q-86 -2 -140 55q-13 -1 -30 -13q10 13 14 32q-12 21 -47 17l5 24q0 17 -7 42l-10 41l13 30l32 15q-15 18 -18 38q7 23 70 79q60 53 60 78q0 9 -24.5 60
t-24.5 73q0 16 19 56t19 57q0 5 -1 10l10 -1q12 0 43 30q35 34 47 39l14 -3l21 -29q14 3 32 25.5t36 26.5q93 -15 149 -50q32 -20 65 -61q29 -36 51 -44q-23 -19 -26.5 -79t-18.5 -75q-18 -12 -50 -43q-32 -37 -55 -37q9 -28 42 -50q30 -17 59 -34q15 40 20 49q16 27 39 34
q32 -13 83 -63t61 -80l-30 -46q-16 -28 -16 -52q0 -25 35 -84q37 -64 42 -93zM470 603q-27 38 -33 45q-23 25 -47 25l-20 -3l1 -12q0 -7 -2 -20t-2 -20q0 -33 41 -33q16 0 62 18zM381 243q0 21 -16.5 36t-36.5 15q-27 0 -27 -26t19 -49q10 -12 15.5 -13t15.5 -2q30 12 30 39
z" />
    <glyph glyph-name="parenleft" unicode="(" horiz-adv-x="288" 
d="M275 746q0 -12 -13.5 -36t-10.5 -42l-26 -2q-24 -28 -40 -127q-13 -83 -13 -151t21 -138q12 -38 39 -101q21 -47 21 -61l-2 -43l-30 16q-4 -20 -45 -61l13 27q-174 126 -174 427q0 22 25 110q26 92 37 101q18 14 38 18l-15 30l40 58q28 37 51 37q30 0 55 -15
q29 -18 29 -47z" />
    <glyph glyph-name="parenright" unicode=")" horiz-adv-x="284" 
d="M271 403q-9 -21 -11 -66q-2 -49 -7 -67q-10 -34 -42 -47q14 -20 14 -44q0 -38 -25.5 -68t-63.5 -37l14 -31q-11 -4 -29 -25q-15 -17 -25 -17q-25 0 -51 12q-32 15 -32 35l27 71q32 82 50 152q27 102 27 177q-8 9 -26 16q10 13 12 28q-20 31 -31 91q-13 70 -24 94
q-16 11 -31 19l-4 24q0 58 63 58v30q19 -41 21 -43q14 -20 39 -17l-1 -9q0 -24 18 -33h4l24 12q-13 -10 -24 -12l-7 -3q99 -96 99 -220q0 -29 -5 -65q9 -10 27 -15z" />
    <glyph glyph-name="comma" unicode="," horiz-adv-x="409" 
d="M365 109q-27 -13 -60 -78.5t-64 -75.5q14 -18 14 -29q-35 -46 -73.5 -65.5t-95.5 -19.5l-29 5q27 0 32 22q2 21 5 42l61 183q13 40 47 40q5 0 20 -1t24 -1q14 0 38 5.5t36 5.5q21 0 30 -7q6 -5 15 -26z" />
    <glyph glyph-name="period" unicode="." horiz-adv-x="304" 
d="M291 113q0 -51 -44 -78q-37 -23 -90 -23q-28 0 -50 8q-32 10 -32 32q0 17 17 38q-45 24 -45 61q0 35 32 65q28 27 64 36q-6 -8 -11 -20q5 -7 18 -7q12 0 35 8t34 8q15 0 37 -36q-4 -11 -14 -31q49 -12 49 -61z" />
    <glyph glyph-name="zero" unicode="0" horiz-adv-x="780" 
d="M744 411l-3 -16q-11 -7 -27 -20q0 -16 7.5 -46t7.5 -44l-3 -21q-15 -11 -30 -25q-5 -30 0 -53q-64 -97 -122 -137q-71 -49 -176 -49q-65 0 -142.5 31t-122.5 76q3 17 17 37q-89 30 -89 165q0 25 4 68q-7 11 -30 31q26 29 26 72q0 20 -5 44l29 15l-15 34l6 23q27 11 44 26
q0 21 -19 33l21 -2q34 0 41 21l-13 47l34 -16q19 85 145 85q15 0 43 9t42 9q34 0 66 -54q4 12 17 29q71 0 116 -49q24 -27 59 -100q31 -62 55 -77q-14 -21 -14 -41q0 -18 15.5 -53t15.5 -52zM509 366q0 2 -10.5 33t-11.5 36q-10 47 -32 91q-30 61 -61 61q-2 0 -48 -20
q-7 1 -14 6q-46 -84 -46 -173q0 -68 26 -117q33 -60 95 -60q43 0 54 20q7 12 7 59q0 20 20.5 38t20.5 26z" />
    <glyph glyph-name="one" unicode="1" horiz-adv-x="385" 
d="M368 0q-32 17 -68 17q-16 0 -48.5 -5.5t-48.5 -5.5q-111 0 -107 168l2 101q15 7 29 19l5 14q-3 6 -21 23q-14 14 -15 28q16 7 31 27l3 28q0 28 -11.5 50t-24.5 44q5 12 12 37q-1 3 -54 87q-35 55 -35 92q0 80 72 80q12 0 54 -3q33 -2 54 0q9 -12 17 -30q24 37 55 37
q57 0 79 -29q18 -22 18 -69q0 -15 -2 -45t-2 -45q0 -18 2.5 -55.5t2.5 -56.5q0 -58 -9.5 -176t-9.5 -176q0 -78 20 -156z" />
    <glyph glyph-name="two" unicode="2" horiz-adv-x="722" 
d="M690 57l-3 -23l-12 3q-23 -7 -70 -35q-16 11 -21 32l-32 -13q-6 -11 -3 -21q-65 8 -147 8q-6 0 -68.5 -3t-107.5 -3q-194 0 -194 51q0 48 33 92q20 29 71 74q55 47 73 70l29 -11q53 31 116.5 130t63.5 147q0 29 -14 50q-17 24 -44 24q-32 0 -57 -40q-32 -51 -46 -61
q-21 0 -64 -7.5t-65 -7.5q-69 0 -69 69q0 73 82 149q80 73 150 73q10 -12 17 -31q35 35 82 35q26 0 98 -29q111 -46 136 -64q59 -45 59 -133q0 -15 -8 -48.5t-8 -52.5l-14 -33q-20 -14 -35 -19l17 -34q-20 0 -33 -25q-10 -20 -20 -41q-15 0 -33 14q0 -23 -33 -58
q-44 -46 -49 -55q15 -32 101 -46q60 -6 119 -12l-8 -37q0 -13 5.5 -39.5t5.5 -38.5z" />
    <glyph glyph-name="three" unicode="3" horiz-adv-x="627" 
d="M599 251q0 -108 -97 -182q-90 -69 -203 -69q-50 0 -80 16q-16 8 -44.5 35.5t-55.5 40.5q-14 -5 -21 -16q0 23 -34 69t-34 70l5 27l24 13q23 -5 39 -16q4 24 22 33l25 4q19 0 51 -8q25 -6 49 -12l-2 -16q0 -22 14 -38.5t36 -16.5q56 0 56 84q0 73 -56 98q-12 -11 -27 -11
q-8 19 -8 40q0 31 39 95t39 108q0 11 -25.5 21.5t-39.5 10.5q-9 0 -19 -7q-7 -17 -7 -40q-24 1 -64 -5q-33 -5 -65 -10q-40 -5 -68 31q-14 -18 -17 -38l1 -12q-1 5 -1 12q-2 34 -2 49q0 122 100 166q65 28 203 28q74 0 150 -42q88 -48 88 -114q-16 -8 -28 -20l-2 -8
q0 -10 15.5 -37.5t15.5 -38.5q0 -6 -33.5 -52.5t-33.5 -61.5q0 -24 25 -38q34 -20 45 -35q25 -34 25 -107z" />
    <glyph glyph-name="four" unicode="4" horiz-adv-x="807" 
d="M771 227q0 -37 -54.5 -87t-54.5 -88q0 -28 19 -50l-26 -3q-42 0 -95 38l-18 -35q-24 16 -66 18q2 0 -71 0l17 28q-1 8 -10 33q-7 22 -7 30q0 18 17 29q-18 10 -44 10q12 0 -60 -6q-10 13 -17 31q-48 -44 -124 -44q-141 0 -141 121q0 72 41 78l-17 35q14 5 34 25.5
t35 25.5l-6 31q0 14 74 153q69 129 91 163t68 42q18 3 84 3q22 0 60 -12.5t55 -12.5q16 0 42 7q33 9 42 11q26 -18 40 -119q11 -75 11 -149q0 -99 -26 -168q63 -12 85 -40.5t22 -97.5zM439 399q-6 31 -31 40q-27 6 -55 11q2 -6 4 -13q0 -9 -10.5 -32t-10.5 -29q0 -13 12 -23
t25 -10q12 0 29 29t37 27z" />
    <glyph glyph-name="five" unicode="5" horiz-adv-x="680" 
d="M648 330q0 -102 -27 -159q-7 -15 -92 -138l-17 35q-82 -68 -252 -68h-72q-16 0 -49.5 5t-50.5 5q-58 0 -58 111q0 47 6 62q10 25 46 39q10 -2 59 -21q35 -13 63 -13q76 0 126 19q74 28 74 93q0 15 -8 32q-12 5 -36 11q0 11 -16 36q-44 20 -129 20q-93 -1 -131 11
q18 7 30 15q-8 28 -8 66q0 28 12.5 82t12.5 81q0 40 -13 64q52 12 48 52q-11 9 -31 17l28 12q15 -3 35 -13q26 -13 34 -15q17 11 24 33q33 -7 67 -7q28 0 82.5 5.5t81.5 5.5q58 0 86 -16q36 -21 36 -74q0 -119 -109 -119q-56 0 -91 33q-6 -20 -18 -31q-6 -2 -35 -2l-14 -4
l-12 -13l-3 -15q26 -31 86 -31h19q13 1 19 1q76 0 95 -58l35 17l-1 -16q-2 -24 33 -69t35 -81z" />
    <glyph glyph-name="six" unicode="6" horiz-adv-x="683" 
d="M651 303q-16 -36 -19 -90t-13 -74q-16 -38 -72 -67q-42 -24 -85 -48q-52 -26 -93 -26q-33 0 -97.5 16t-96 16t-75.5 52q-26 36 -53 72l12 30q-10 5 -28 18q0 135 47 254q24 60 88 168q47 80 47 117l21 -2q6 0 15.5 7t11.5 13q-4 16 -15 33q38 16 93 16q166 0 174 -8
l5 -14q-39 -98 -103 -112q10 -11 17 -34q-5 -14 -23 -36t-23 -36q6 -23 25 -41.5t38 -35.5q18 4 34 12l32 -13q14 -19 18 -36q19 11 32 15q35 -29 47 -67q9 -29 9 -83q9 -10 30 -16zM412 286q0 27 -21 46.5t-49 19.5q-36 0 -68 -24t-45 -59q19 -6 53 -43q31 -35 49 -35
q24 0 36 4q20 8 33 39q12 28 12 52z" />
    <glyph glyph-name="seven" unicode="7" horiz-adv-x="721" 
d="M688 767q1 -16 -32 -46.5t-62 -98.5q-3 -8 -96 -189q-61 -116 -70 -193q-8 2 -14 2q-27 0 -32 -34q-11 -67 -17 -83q-22 -58 -87 -101q-38 -25 -67 -23l-18 1l-28 30l-17 3l-22 -9l-7 -26q-8 21 -23 33l-17 2q-22 0 -42 -14q38 32 107 179q59 126 95 126q-18 24 -18 39
l2 11l31 21l3 13q0 29 3 36q8 10 31 19l-17 34q25 11 37 44q5 11 14 59q-37 8 -64 8q-30 0 -212 -8q14 22 14 54q0 21 -9 61t-9 61l4 30q16 -16 31 -16q17 0 39 16l7 -23l14 -12l11 3q13 14 19 28q242 -11 277 -11q26 0 76 6.5t74 6.5q12 0 33 -8t31 -8l14 4l11 14z" />
    <glyph glyph-name="eight" unicode="8" horiz-adv-x="702" 
d="M670 232q0 -38 -32 -79q-19 -24 -67.5 -67.5t-64.5 -65.5l-20 16l-45 -14l-20 15q-23 -37 -72 -37q-30 0 -89 18.5t-92 18.5v5q1 20 -25 26q-32 9 -39 18l11 37q0 16 -15 27q-19 13 -52 6q19 23 19 41q0 13 -11.5 32.5t-23.5 28.5q13 15 30.5 60.5t31.5 62.5q22 29 56 29
l1 38l-6 33l-17 16q-14 -8 -45 -19q14 18 13 31q-32 57 -32 84q0 56 44 111q37 45 93 78q6 -24 18 -31l24 9l12 32q46 16 85 16q34 0 103 -24q65 -22 94 -18q10 -3 60 -54q35 -36 35 -51q0 -3 -1.5 -17.5t-1.5 -29.5q0 -9 7.5 -28.5t7.5 -27.5q0 -10 -36 -52
q-40 -47 -46 -64q-2 -6 52 -85q56 -82 56 -125zM407 606q0 15 -18 28.5t-33 13.5q-25 0 -43.5 -30t-18.5 -55q0 -23 44 -23q17 0 32 13q12 14 24.5 27t12.5 26zM407 288q0 27 -13.5 47.5t-40.5 20.5q-19 0 -41 -50q-20 -45 -20 -75q0 -51 56 -51q59 0 59 87v21z" />
    <glyph glyph-name="nine" unicode="9" horiz-adv-x="733" 
d="M700 537q0 -40 -23 -91l-88 -206q-53 -115 -114 -170q-79 -70 -199 -70q-59 0 -79 39q2 10 65 93q61 80 61 112q0 3 -29 53q-19 -15 -33 -15q-6 12 -19 28l-28 -1q-54 -2 -107 58l-74 104q18 11 21 62q2 48 32 60q-29 45 -29 52q0 29 31 52q28 17 55 33q14 9 28 30.5
t99 36.5q66 11 125 11q122 0 210 -73q95 -78 95 -198zM446 529q0 53 -64 82q-37 16 -40 16q-8 0 -38.5 -42.5t-30.5 -54.5q0 -31 39 -50q32 -16 66 -16q68 0 68 65z" />
    <glyph glyph-name="colon" unicode=":" horiz-adv-x="290" 
d="M263 433q0 -47 -24 -81q-28 -38 -73 -38q-13 0 -34 10q-70 35 -82 46q-27 26 -27 84q0 36 13 50t49 22q7 2 19.5 20t20.5 18q19 0 33 -40q23 14 33 14q30 0 52 -39q20 -34 20 -66zM277 126q0 -19 -11 -24q-16 -7 -18 -10q-10 -13 -7 -52l-15 2q-17 0 -51.5 -16t-52.5 -16
q-31 0 -56 40q-16 31 -33 63q-20 38 -20 48q0 24 76 58q66 29 79 29q33 0 71 -44.5t38 -77.5z" />
    <glyph glyph-name="semicolon" unicode=";" horiz-adv-x="433" 
d="M375 322q0 -41 -41 -76t-84 -35q-48 0 -74 41q-21 35 -21 86q0 55 57 78l17 24q31 3 35 3q49 0 80 -35.5t31 -85.5zM377 146q0 -3 -46 -72t-49 -70l-39 -16q15 -21 14 -28q-33 -30 -46 -49q-26 -35 -33 -43l-13 -4q-9 0 -43 17.5t-54 15.5h-6q14 1 26 1q6 46 12 93
q10 69 31 107q28 52 77 52q80 0 73 -1q12 1 76 25q20 -4 20 -28z" />
    <glyph glyph-name="question" unicode="?" horiz-adv-x="696" 
d="M664 549l-35 18q-3 -19 -2 -47l2 -46q0 -69 -72 -107q-43 -23 -134 -41l17 -34l-55 2l-23 -8l-3 -18q0 -25 48 -70q51 -49 58 -79q-7 -18 -31 -44t-31 -42l3 -16q-19 14 -33 14q-20 -9 -36 -31q-7 21 -18 32l-6 1q-11 0 -27 -6q-22 -8 -25 -9l-22 11q-17 31 -17 75
q0 70 21 104q7 12 39 38q21 17 21 46l-20 -1q-32 -2 -52 29q-16 27 -16 62q0 46 11 63q8 14 31 14q7 0 27.5 -1.5t34.5 -1.5q36 0 64 38t28 76q0 30 -26.5 53.5t-57.5 23.5l-20 -3q-18 -16 -29 -37.5t-18 -26.5q-14 -8 -52 -8q-21 0 -61 -6t-60 -6q-56 0 -56 64q0 63 93 126
q85 59 151 59q45 0 87 -10l78 -22q9 15 19 27h2q18 0 53 -26q46 -35 51 -38q19 5 30 15q15 -18 15 -52t19 -80q17 -37 35 -74z" />
    <glyph glyph-name="A" unicode="A" horiz-adv-x="826" 
d="M789 56l-4 -31q-7 -11 -72 -17q-49 -5 -83 -5q-57 0 -82 30q-19 28 -37 56q-29 30 -95 30q-45 0 -86 -17q-47 -19 -67 -53q-13 -23 -41 -30q-40 -11 -49 -16q-5 14 -17 30q-29 -3 -94 -33q-25 20 -25 91q0 81 51 213q48 118 96 237q53 143 56 246q24 -9 61 -9q29 0 88 15
t89 15q57 0 80 -27q12 -15 25 -62.5t35 -71.5q-3 -24 -20 -48l34 -17q-13 -19 -15 -34q8 -31 41 -52q4 -59 40.5 -169.5t41.5 -169.5q1 -3 25 -31.5t24 -69.5zM462 326q-71 40 -90 40q-22 0 -22 -30v-9q0 -19 21 -29q17 -8 38 -8q26 0 33.5 5.5t19.5 30.5z" />
    <glyph glyph-name="B" unicode="B" horiz-adv-x="746" 
d="M712 249q0 -132 -92 -195q-79 -53 -217 -53q-59 0 -118 5q-6 10 -19 26q-35 0 -103 -15t-102 -15q0 39 -10 116t-10 116q0 91 37 145q-25 13 -37 114q-7 61 -7 126q0 92 16 128q24 58 99 58q23 0 68.5 -3t68.5 -3q27 0 49 3q6 -16 17 -27l13 -3q27 18 65 37q14 -5 43 -23
q14 -9 57 -9q37 0 86 -84q46 -78 46 -120q0 -83 -88 -160q57 -8 97.5 -57t40.5 -107zM386 566q0 18 -12.5 39.5t-27.5 21.5q-19 0 -29 -21q-9 -17 -9 -37q0 -19 10 -41q12 -27 28 -27q18 0 30 25q10 21 10 40zM409 281q0 21 -29 32q-21 8 -46 8q-13 0 -25.5 -13.5
t-12.5 -27.5q0 -18 19.5 -38t37.5 -20q19 0 37.5 20t18.5 39z" />
    <glyph glyph-name="C" unicode="C" horiz-adv-x="561" 
d="M535 89q0 -57 -40 -76q-27 -13 -93 -13q-77 0 -123 19q-29 13 -64 46q-39 36 -66 51l-28 -2l1 8q0 14 -17 41q-21 33 -24 43l7 23q-27 21 -50 17q5 22 5 55q0 30 -9 88.5t-9 88.5q17 8 27 16q0 83 47 158t122 103q27 -11 31 -11q7 0 12 13t8 16q7 2 44 2l17 2
q13 13 19 31q13 -19 42 -27q12 0 35.5 10t26.5 10q-12 0 62 -9q-15 -20 -14 -31q17 -26 26 -86q-16 -10 -29 -15q32 -24 32 -53q0 -22 -21.5 -44.5t-43.5 -22.5q-14 0 -43 10t-43 10q-42 0 -73 -66q-25 -54 -25 -102q0 -68 65 -112q59 -41 133 -41q28 0 52 7q-3 -31 -2 -78
q3 -72 3 -79z" />
    <glyph glyph-name="D" unicode="D" horiz-adv-x="781" 
d="M744 406q0 -140 -55 -221q-32 -47 -102 -91q-55 -34 -55 -61q-19 11 -31 14q-47 -38 -113 -38q-12 0 -38.5 1.5t-40.5 1.5q-36 0 -66 -9l-16 30q-27 -33 -79 -33q-27 0 -108 16q7 50 7 90q0 39 -6 117t-6 117q0 86 40 152l-35 16q10 14 12 32q2 13 1 34q-1 30 -1 34
q0 33 23 54q-35 24 -35 57q0 48 86 72q60 17 126 17q63 0 120 -11q84 -15 92 -47q21 6 39 6q91 0 170 -131q71 -118 71 -219zM499 390q-13 19 -46 90q-20 43 -75 86q-13 10 -22 10q-23 0 -40 -32q-15 -28 -15 -53v-119q0 -14 -1.5 -39t-1.5 -36q0 -37 14 -54q17 -21 61 -21
q20 0 24 16q2 6 0 33l18 -1q21 -2 29 26t16 55q12 32 39 39z" />
    <glyph glyph-name="E" unicode="E" horiz-adv-x="593" 
d="M566 9q-53 -7 -118 -8q-44 -1 -118 0q-89 2 -118 2q-103 0 -168 -11q-5 21 -16 63l6 15q13 7 28 9q-21 21 -21 48q0 15 9 45.5t8 46.5l-1 15q-23 7 -31 25l3 10q11 12 33 18q-33 46 -33 118q0 26 5 79.5t5 79.5q0 40 -8 71q9 7 31 16l-19 19q-3 7 -3 35q0 15 -13 33
q22 7 33 21q4 13 2 49l17 -31q24 0 78 12q51 11 77 9q41 -3 103 -1q84 4 102 4q59 0 92 -27l17 34q14 -24 14 -55q0 -21 -8 -62t-8 -62q0 -15 2 -29q-20 1 -68 6q-44 5 -68 5q-41 0 -71 -12q-41 -17 -41 -53q0 -48 65 -58q60 -6 120 -11q65 -14 65 -70q0 -73 -8 -110
l-16 -10l-11 2l-20 28l-11 2l-14 -3l-9 -20l1 -9q-48 25 -84 25t-62 -29t-26 -66q0 -17 15 -34q19 13 33 14q11 -11 20 -31q26 18 59 23q18 3 65 3q41 0 66 8q2 -96 18 -191z" />
    <glyph glyph-name="F" unicode="F" horiz-adv-x="596" 
d="M569 775q-7 -42 -39 -74q22 -8 33 -21q5 -12 5 -35q0 -14 -9 -25q-37 -18 -95 -18q-15 0 -44 1.5t-43 1.5q-43 0 -60 -11q-22 -14 -22 -56q0 -65 100 -65h31q20 1 30 1q87 0 87 -53q0 -32 -25 -81q2 -10 29 -31q-24 -16 -101 -19q-87 -4 -116 -14q-56 -18 -56 -74
q0 -10 31 -35q8 -32 8 -61q0 -54 -38 -87l34 -17q-14 5 -80 8q-50 3 -73 26l-11 -22q-21 -15 -46 -14l-63 2q9 26 9 63q0 16 -2.5 49t-2.5 49q0 61 26 98l-1 19q-14 12 -29 12q24 5 31 17q0 34 -20 150.5t-20 171.5q0 91 27 172q15 -13 49 -13q41 0 127 9t130 9
q164 0 209 -33z" />
    <glyph glyph-name="G" unicode="G" horiz-adv-x="821" 
d="M783 248q0 -75 -61 -150q-64 -79 -138 -79q-8 0 -25 5.5t-25 5.5l-14 -3q-12 -11 -17 -27q-10 2 -86 3q-52 1 -83 22q-24 -2 -47 -11q-19 4 -33 15l16 34q-118 17 -178 131q-49 94 -49 226q11 9 29 28l-3 10q-17 9 -32 24q69 141 113 198q85 108 190 108q15 0 43 -7
t41 -7q36 0 62 34q9 -8 58 -26q61 -22 101 -42q68 -34 123 -81q-5 -2 -96 -59q-58 -35 -103 -35q-25 0 -64 31t-63 31q-68 0 -118 -83q-44 -73 -44 -146q0 -76 44 -141q48 -72 119 -72q81 0 81 56l-6 32q-7 7 -46 25q-31 13 -31 29q16 6 29 23l-3 9l-31 22l-2 20l4 25l14 11
q120 0 201 -19q46 23 64 23q69 0 69 -111q0 -16 -1.5 -44t-1.5 -38z" />
    <glyph glyph-name="H" unicode="H" horiz-adv-x="793" 
d="M757 652q0 -5 1 -52.5t1 -83.5q0 -232 -39 -274l30 -15q-12 -46 -12 -120q0 -25 16 -102q-24 8 -53 8q-20 0 -61 -6.5t-61 -6.5q-89 0 -89 143v32q1 20 1 28q0 58 -18 83q-22 30 -77 30q-88 0 -88 -121q0 -18 2 -49.5t2 -42.5q0 -58 -34 -98q-4 12 -16 29
q-73 -21 -85 -21q-30 0 -52 25l-9 -25l-13 -9l-11 2q-12 12 -18 32l-35 -17l-4 62q0 23 11 194q11 19 26 51l-5 24l-20 11l-8 -1q7 72 7 161q0 -7 -7 264q13 -8 29 -8q9 0 28 4t29 4q20 0 34 -16q23 36 94 36q47 0 59 -58q3 -18 3 -96t-37 -138q70 -35 143 -35q87 0 87 69
q0 14 -10.5 41.5t-9.5 42.5q3 46 -6 171q33 -8 122 -11q77 -4 118 -18l15 29q20 -77 20 -152z" />
    <glyph glyph-name="I" unicode="I" horiz-adv-x="308" 
d="M294 122q1 -9 1 -19q0 -40 -17 -69q-21 -34 -56 -34q-22 0 -58 6q-56 8 -58 8q-31 4 -58 -13q-27 63 -27 117q0 53 27 91q-35 28 -35 88q0 54 10 161t10 160q0 137 -19 180q26 -9 58 -9q22 0 65 9t64 9q53 0 90 -43q-29 -21 -29 -47q0 -24 29 -40l-34 -17q27 -51 27 -132
q0 -16 -1 -49t-1 -49q0 -37 5 -65l-26 -17z" />
    <glyph glyph-name="J" unicode="J" horiz-adv-x="442" 
d="M423 738q0 -19 -14 -53t-14 -46q0 -66 7.5 -198.5t7.5 -199.5q0 -90 -29 -131q-26 -37 -109 -77q-24 6 -37 13q-48 -46 -112 -46q-43 0 -71 18q-32 22 -32 64q0 16 6.5 50t6.5 51q0 23 -9 41q30 -12 52 -12q61 0 104 76q-1 2 -36 28l-4 20q0 12 40 61l-27 9l-9 16
q10 80 10 101q0 26 -5.5 79.5t-5.5 80.5q0 125 66 125h85q28 0 70 -14q46 -17 56 -37z" />
    <glyph glyph-name="K" unicode="K" horiz-adv-x="757" 
d="M723 33q-19 -27 -91 -27l-18 26l-23 -3l-10 -27q-9 12 -22 17l-36 -17q-40 16 -93 86q-49 64 -55 98q5 20 18 38q-36 15 -54 15q-33 0 -38 -80q-6 -98 -27 -123l34 -17q-24 4 -51 -17l-18 34q-69 -36 -121 -36q-53 0 -84 36l35 18q-35 36 -35 88q0 28 11.5 56t23.5 54
q-9 17 -30 22q18 65 18 158q0 48 -6.5 143t-6.5 138q0 33 25 58l-8 3q-12 3 -27 14l27 -14h6q47 34 212 34l16 -5q11 -13 11 -44q0 -19 -5 -54t-5 -45q0 -55 48 -66q17 10 24 38q11 46 43.5 78t64.5 63q-3 12 -14 32l36 2q50 4 100 -36q12 12 39 21l44 14q19 -7 37 -18
q-38 -54 -38 -86q-14 -7 -29 -20q-5 -15 -2 -36q-5 -6 -18 -12q-16 -7 -28 -49q-15 -55 -18 -62q-40 -17 -52 -31q-17 -18 -17 -57q0 -60 22 -83l60 -56q-3 -16 -12 -34q64 -80 83 -107q42 -63 54 -122z" />
    <glyph glyph-name="L" unicode="L" horiz-adv-x="569" 
d="M542 91q0 -46 -77 -72q-57 -19 -116 -19q-40 0 -119 6.5t-118 6.5q-44 0 -81 -6q24 85 24 118q0 32 -25 82l31 23q-2 13 -15 32t-16 29q12 18 30 22q-27 107 -27 289q0 59 33 87q-41 9 -41 55q0 42 28 54q17 7 68 7q10 0 149 -12q7 4 17 15l-1 -18q-1 -19 5 -51l9 -50
l-27 -16q4 -16 25 -52q-5 -247 -5 -251l1 -73q1 -55 14 -76q11 -16 35 -16q6 0 19.5 1t20.5 1q37 0 61 -24q27 5 47 29q51 -49 51 -121z" />
    <glyph glyph-name="M" unicode="M" horiz-adv-x="1071" 
d="M1022 98q0 -35 -4 -90l-11 -7q-82 12 -98 12q-28 0 -43 -8q-7 19 -18 31l-10 4l-45 -19l-9 4q-1 25 9 47q-14 32 -29 64q-15 39 -15 69q0 25 15 56l-35 17q28 23 34 58l-7 16l-26 7q-23 0 -42 -39q-13 -30 -26 -59l34 -18q-24 -16 -26 -68t-24 -67t-21 -25l3 -43l-15 -28
q-23 -12 -49 -12q-51 0 -78.5 28.5t-27.5 78.5q0 19 -36 54l-4 21q0 13 7 33q9 29 10 33l-15 23h-1q-65 1 -75 -69q-19 -131 -19 -132q-30 -72 -143 -72q-21 0 -134 7q14 53 27 107q13 61 13 107q0 30 -5 59h34l-3 12q0 12 17 63l-5 15l-26 12q25 18 45 39q4 14 2 36l-2 37
q0 33 23 57q-9 3 -17 7q-11 5 -13 11l40 128l-10 42h34l-2 20l4 19l13 9q80 6 192 4l49 -1l-4 -15q0 -13 15 -44q18 -37 21 -45l-15 -33l33 -16q-19 -22 -19 -52l3 -28l15 -17l16 -2q23 0 55 21t32 43l-1 15q-12 13 -32 20q24 26 47 97q22 67 31 73l62 -13l29 13
q7 -23 20 -31l14 -2q7 0 31.5 16.5t31.5 19.5q74 -25 132 -333q47 -247 47 -377z" />
    <glyph glyph-name="N" unicode="N" horiz-adv-x="849" 
d="M812 343q0 -260 -17 -323l-24 -15q-24 4 -52 4q-18 0 -54 -2.5t-56 -2.5q-60 0 -108 61q-2 3 -79 129q-51 82 -105 114q-2 -17 -12 -43q-12 -29 -15 -43l6 -17l21 -16q-30 -23 -30 -52q9 -10 30 -16l-13 -23q7 -28 16 -49l-4 -11q-9 -4 -39 -4l-20 -6l-8 -26
q-27 10 -49 10q-20 0 -60.5 -6t-60.5 -6l-23 5l-12 20l3 8l29 21q-3 19 -21 70q-14 42 -14 88q0 40 7.5 118.5t7.5 117.5q0 44 -7 81q13 11 31 17q-42 64 -42 135q0 127 108 127q117 0 190 -73q39 -39 93 -144q45 -86 81 -100q20 6 33 42q11 31 11 57q0 24 -10 80
q-10 52 -8 80l2 34q25 -1 52 17q6 -22 16 -30q111 28 132 28q42 0 64 -26l9 -29q0 -14 -6 -44.5t-6 -45.5q0 -19 12 -51l-11 -14l-18 -7q30 -103 30 -239z" />
    <glyph glyph-name="O" unicode="O" horiz-adv-x="893" 
d="M851 352q0 -70 -47 -144q-31 -48 -99 -118q-13 1 -30 14q-18 -73 -110 -73q-16 0 -40 2q-6 -19 -26 -29l-41 -4q-25 0 -64.5 14.5t-66.5 14.5q-34 0 -91 39q-51 35 -76 67l1 21q0 8 -24 28q-33 27 -44 42q-25 30 -25 62q0 16 6 32q-28 10 -34 54v72q0 149 121 257
q118 105 270 105q420 0 420 -456zM589 398q0 75 -28 123q-34 60 -103 60q-146 0 -146 -161q0 -58 34 -117q40 -67 93 -67q31 0 63 28q55 47 63 57q24 30 24 77z" />
    <glyph glyph-name="P" unicode="P" horiz-adv-x="691" 
d="M660 545q0 -142 -129 -214q-16 -1 -29 11q-26 -30 -82 -34q-72 -6 -84 -11q-40 -16 -46 -81l-9 -94q9 -10 30 -16l-14 -28q6 -19 16 -57l-5 -12l-21 -9l-23 4q-17 12 -22 33q-62 -33 -145 -33q-16 0 -38 11t-28 23q13 25 41 34q-7 20 -11 25q-8 11 -24 9q0 92 30 343
q-10 10 -26 32q2 38 -1 103q-5 76 -5 104q0 120 53 120q36 0 69 -35q4 13 17 30q36 0 47.5 -4t38.5 -26q6 22 17 30q171 0 260 -44q123 -61 123 -214zM398 536q0 28 -21.5 52.5t-48.5 24.5q-33 0 -33 -44q0 -24 10 -44q1 -2 24 -40q6 -3 14 -3q22 0 38.5 16t16.5 38z" />
    <glyph glyph-name="Q" unicode="Q" horiz-adv-x="845" 
d="M821 431q0 -63 -25 -146q-16 -53 -47 -125q-25 -59 -25 -64q0 -32 24 -61q9 -11 48 -47q-5 -26 -17 -30l-37 2q-32 2 -84 -21q-40 -18 -79 -37q-6 62 -54 87q-35 18 -102 18q10 0 -75 -2q-10 8 -17 29q-20 -12 -33 -15l-30 12q-14 20 -19 37q-15 -13 -32 -13
q-32 0 -108 97q-65 84 -79 118q-11 28 -11 199q0 94 41 135q29 22 57 44q-2 12 -17 32q54 30 109 61q62 32 114 32q22 0 44 -5q18 14 14 43q12 -3 72 -13q40 -6 71 -19l38 12q88 -29 129 -61q35 -28 57 -79q24 -63 47 -126q26 -68 26 -94zM563 348q-16 100 -35 145
q-36 86 -105 86q-59 0 -102 -57q-39 -53 -39 -114q0 -75 55 -123q50 -44 127 -52v33q13 -20 33 -20q12 7 16 31q6 33 10 42q11 22 40 29z" />
    <glyph glyph-name="R" unicode="R" horiz-adv-x="721" 
d="M689 20l-3 -14l-17 -6q-17 0 -50 5.5t-50 5.5q-10 0 -20 -2l-18 28q-12 0 -26 -15q-17 -18 -24 -21q-112 51 -136 175q-32 -26 -48 -79l-20 -92q-28 14 -59 14q-18 0 -53 -5.5t-53 -5.5q-55 0 -72 66q-7 30 -7 111q0 56 35 77l-17 91q1 -4 1 103q0 35 -9.5 104t-9.5 104
q0 144 84 144q21 0 54 -2q45 -3 54 -3q11 -11 17 -30q17 11 38 14q15 3 39 2q38 -2 41 -2q13 0 40 6.5t40 6.5q185 0 199 -232q16 -9 28 -19l5 -24l-4 -21q-11 -17 -33 -21q15 -22 14 -34q-12 -10 -31 -17l17 -34q-30 -7 -58 -26q-34 -23 -34 -49q0 -16 38 -74
q54 -83 70 -113q38 -70 38 -116zM420 570q0 13 -40 28q-50 20 -52 21q-36 -63 -36 -78q0 -17 12 -29.5t28 -12.5q17 0 81 35q-1 3 -1 6q0 5 4 15t4 15z" />
    <glyph glyph-name="S" unicode="S" horiz-adv-x="668" 
d="M637 285q0 -45 -26 -81l11 -31q-56 -116 -187 -153q-16 5 -33 12l-27 -6q-9 -13 -7 -26l-18 34q-29 -9 -85 -34q-26 27 -83 35q-72 9 -89 17l17 34q-80 0 -80 46q0 100 23 114q35 0 104.5 -22t103.5 -22q62 0 90 40q-6 12 -25.5 32.5t-26.5 34.5q-24 -9 -51 -9
q-39 0 -72 21q-36 21 -49 57l-7 -4q-9 -8 -27 -13l27 13q2 2 4 5v5q1 9 -24 24q-31 20 -45 37q-25 30 -25 73q0 55 46 100l-35 17q19 6 38 47q24 54 38 71q30 36 79 36q24 0 48 -12q46 31 97 31l34 -3q23 -9 27 -32q29 21 63 21q36 0 81 -31q49 -34 49 -68q0 -3 -4 -77
l-17 1l-26 -10q-10 -20 -15 -42l-22 -4q-8 0 -33 24.5t-55 24.5q-68 0 -77 -2q-39 -8 -45 -48l15 -19q93 0 203 -80q118 -87 118 -178z" />
    <glyph glyph-name="T" unicode="T" horiz-adv-x="647" 
d="M617 674q0 -35 -15 -63q-19 -35 -51 -35q-12 0 -37 8.5t-37 8.5q-22 0 -36 -13l12 -28q-2 -15 -12 -35q-13 -26 -16 -34q11 -17 34 -23q-12 -25 -12 -50q0 -15 5.5 -45.5t5.5 -45.5q0 -24 -9 -60q-11 -43 -25 -57q43 -10 43 -83q0 -70 -18 -96q-14 -21 -45 -21
q-9 0 -31 2t-34 2q-29 0 -52 -10l-17 34q-23 -20 -46 -20q-24 0 -37 32q-10 24 -10 51q0 32 14 71q14 34 28 67q-6 10 -35 23l34 17q-24 34 -24 92q0 22 4 64t4 60q0 49 -27 81.5t-76 32.5q-34 0 -53 -21q2 6 2 12q0 11 -4.5 32.5t-4.5 31.5q0 25 25 43l-35 17q12 16 16 30
q-5 15 -16 22q56 26 141 26h43q30 -1 45 -1q34 0 100.5 9t100.5 9q158 0 158 -137z" />
    <glyph glyph-name="U" unicode="U" horiz-adv-x="724" 
d="M691 589q0 -62 -9.5 -186t-9.5 -187q0 -35 -22 -65t-55 -39l17 -34q-39 0 -110.5 -39.5t-88.5 -39.5q-213 0 -298 88q-81 83 -79 285l1 97l28 17l1 12q0 10 -7 30t-7 29l3 16l13 15l-34 16q23 22 23 52q0 17 -9.5 49.5t-9.5 48.5q0 26 19 44q28 10 148 10q97 0 97 -187
q-10 -5 -26 -17q10 -23 28 -70q5 -12 5 -42t-5 -87.5t-5 -68.5q0 -104 92 -123l-5 18l8 17q15 10 31 17q-14 40 -14 86q0 67 27 153q-19 4 -29 19q-4 19 -4 54q0 31 17 53l20 8q-39 39 -39 93q0 71 54 71q11 0 35.5 -5.5t36.5 -5.5q29 0 49 17q8 -12 24 -17q20 11 36 13
q53 -91 53 -215z" />
    <glyph glyph-name="V" unicode="V" horiz-adv-x="837" 
d="M799 754q-48 -59 -157 -347q-91 -242 -134 -387l-33 14q-7 -17 -28 -30l-36 -4q-56 0 -93 34q-22 21 -126 268q-91 216 -120 298q-34 97 -34 203h7q-8 0 47 -14l23 17q7 -23 18 -30l25 3l9 27l52 2q70 3 82 -54l-12 -33q11 -5 30 -21q1 -5 1 -44l3 -18q9 -15 32 -20
l-18 -34q22 -3 37 -41q17 -46 32 -57q42 8 47 50q2 41 5 82q17 -11 31 -14q10 18 10 35q0 8 -4.5 27t-4.5 33l2 17q21 3 40 10l10 23q-5 23 -17 40q133 22 194 19l46 -2l-5 -18l8 -17q14 -10 31 -17z" />
    <glyph glyph-name="W" unicode="W" horiz-adv-x="1257" 
d="M1200 760q-6 -15 -25.5 -38.5t-25.5 -38.5l15 -39q-2 -4 -18 -58l-33 -19q11 -26 11 -52q0 -33 -24 -93q-18 -43 -35.5 -85.5t-29.5 -154.5q-11 -92 -41 -128q-45 -54 -162 -54q-73 0 -102 65q-18 66 -36 133q-22 81 -73 105q-23 -3 -58 -121q-43 -147 -54 -168l-13 8
q-33 12 -117 12q-22 0 -52 -17l-25 14q-28 31 -63 159t-35 193l-41 39l-34 150q-19 80 -55 145q35 9 32 30l-7 16q-25 9 -41 5q4 23 20 31l27 6q27 0 70 -37l8 20q14 20 55 20q45 0 79 -50q26 -36 48 -103q13 -44 27 -88q-20 -8 -29 -17l20 -36l34 -15l28 13q6 12 30 102
q18 64 51 87q-21 26 -21 60l12 34l29 13l91 -20l40 13q6 -20 17 -31q15 -4 35 -1q37 -32 53 -130t51 -133h2q32 -2 53 28q0 56 23 145q29 110 66 110q15 0 46 -7.5t47 -7.5t46.5 10.5t43.5 12.5l29 -13z" />
    <glyph glyph-name="X" unicode="X" horiz-adv-x="831" 
d="M794 20l-2 -17q-45 9 -129 9q-89 1 -129 7l1 12q1 14 -25 32q-19 12 -37 24q-7 23 -24 70q-100 -105 -119 -118q-56 -39 -156 -39q-75 0 -137 19q25 22 50 45t25 48q0 12 -6 27q51 17 62 36q6 30 60 132q51 99 51 102q0 45 -49 114l-92 124q-49 77 -49 144q55 17 111 17
q181 0 198 -155q55 14 89.5 57t30.5 98q23 -4 139 -9q86 -4 135 -25q-79 -104 -101 -138q-51 -78 -70 -154q-2 -8 -25 -32t-28 -37q3 -17 23 -65q16 -36 12 -71q38 0 61 -39q20 -34 39 -67l-11 -30l60 -56q42 -42 42 -65z" />
    <glyph glyph-name="Y" unicode="Y" horiz-adv-x="767" 
d="M732 746q0 -27 -58 -117q-79 -122 -109 -185q-58 -122 -58 -225q0 -30 16 -47l-34 -17q19 -22 19 -52q0 -18 -8 -50q-10 -37 -11 -50q-38 23 -67 30q-4 -3 -17 -30l-17 33q-38 -36 -71 -36q-67 0 -67 66l4 30q11 20 33 25q-11 16 -21 31q-15 23 -15 32l4 17l29 21
q-2 13 -12 32q-13 23 -15 31q9 17 30 21q-19 31 -51 97q6 23 18 37q-28 4 -56 45q-19 33 -37 65l-127 211q67 33 198 33h39q0 -16 11 -29q15 -5 39 -4q-15 -16 -15 -38q0 -29 26.5 -58.5t55.5 -29.5q37 0 55 45q26 64 45 83q46 45 150 45q35 0 61 -13q33 -17 33 -49z" />
    <glyph glyph-name="Z" unicode="Z" horiz-adv-x="831" 
d="M794 169q0 -19 -10 -56.5t-10 -55.5q0 -34 17 -53q-30 3 -65 3q-31 0 -92.5 -3.5t-92.5 -3.5q-27 0 -81 7t-81 7q-34 0 -101.5 -6.5t-101.5 -6.5q-67 0 -121 37l-18 -34q58 199 169 311q-3 12 -14 31l17 -3l28 15q10 30 6 56l31 4l15 13q0 22 23 65q27 51 31 66l-14 25
q-24 13 -87 13q-58 0 -84 20q-7 -25 -25 -34l-27 -3q-31 0 -51 20l34 17q-26 35 -32 91q-2 21 -2 97q56 -5 129 -5q32 0 149 3q92 2 149 0q29 -1 94 -12q62 -10 93 -10q21 0 105 24q3 -21 9 -64q-71 -128 -87 -151q-57 -83 -125 -115q-1 -3 -1 -7q0 -7 5 -19.5t6 -18.5
q-26 -33 -51 -67q-34 -47 -34 -71q-17 -9 -28 -22l-1 -12q-2 -25 48 -39q59 -17 70 -30l17 34q21 -30 51 -30q12 10 18 30q11 -8 26 -10q11 -1 28 0q23 2 28 2l19 -4q22 -16 22 -45z" />
    <glyph glyph-name="a" unicode="a" horiz-adv-x="661" 
d="M631 44l-3 -24q-6 -8 -58 -14q-39 -4 -66 -4q-45 0 -65 24q-15 23 -31 45q-22 24 -75 24q-90 0 -123 -56q-10 -19 -32 -24q-33 -8 -40 -13q-4 12 -14 25q-22 -3 -75 -27q-19 16 -19 73q0 65 40 170q39 95 77 190q42 114 45 196q19 -6 49 -6q23 0 70.5 11.5t70.5 11.5
q46 0 64 -22q10 -11 20.5 -49.5t27.5 -56.5q-2 -20 -16 -39l28 -14q-11 -14 -12 -26q6 -25 32 -42q4 -48 33 -136t33 -136q0 -2 19.5 -24.5t19.5 -56.5zM369 261q-56 31 -72 31q-17 0 -17 -23v-7q0 -30 47 -30q21 0 27 4.5t15 24.5z" />
    <glyph glyph-name="b" unicode="b" horiz-adv-x="597" 
d="M570 200q0 -199 -248 -199q-47 0 -94 4q-5 8 -15 21q-28 0 -82.5 -12t-82.5 -12q0 31 -7.5 92.5t-7.5 92.5q0 73 29 116q-35 18 -35 192q0 77 13 105q20 44 84 44q10 0 72 -4q44 -3 72 2q4 -14 14 -22l10 -3q21 15 52 30q11 -4 35 -18q11 -7 45 -7q30 0 69 -67
q36 -63 36 -97q0 -66 -70 -128q46 -6 78.5 -45t32.5 -85zM309 453q0 14 -10 31.5t-23 17.5q-14 0 -22 -15.5t-8 -31.5q0 -15 9 -33q9 -21 22 -21q14 0 24 20q8 17 8 32zM327 225q0 16 -23 25q-17 7 -37 7q-11 0 -20.5 -11t-9.5 -22q0 -15 15.5 -30.5t30.5 -15.5t29.5 16
t14.5 31z" />
    <glyph glyph-name="c" unicode="c" horiz-adv-x="448" 
d="M428 71q0 -46 -32 -61q-21 -10 -74 -10q-62 0 -99 16q-23 10 -51 36q-31 29 -52 41l-23 -2l1 6q0 12 -14 34q-17 26 -19 34l5 18q-21 17 -39 14q4 17 4 44q0 24 -7.5 71t-7.5 70q13 7 21 13q0 66 38 126.5t98 82.5q21 -9 25 -9q5 0 9 10.5t8 12.5t34 2l14 2q10 10 15 24
q10 -15 33 -21q10 0 28.5 8t20.5 8q-9 0 51 -8q-12 -15 -12 -25q14 -20 21 -68q-12 -8 -23 -12q26 -19 26 -42q0 -18 -17.5 -36t-35.5 -18q-11 0 -34 8t-35 8q-33 0 -57 -52q-21 -44 -21 -83q0 -54 52 -89q47 -32 107 -32q22 0 41 5q-3 -25 -1 -63q2 -57 2 -63z" />
    <glyph glyph-name="d" unicode="d" horiz-adv-x="625" 
d="M595 325q0 -112 -44 -177q-25 -37 -82 -73q-44 -27 -43 -48q-15 8 -25 11q-38 -31 -90 -31q-11 0 -32 1.5t-31 1.5q-30 0 -53 -8l-13 25q-22 -27 -63 -27q-22 0 -87 13q6 40 6 72q0 31 -5 93.5t-5 93.5q0 69 32 121l-28 13q8 12 10 26q2 10 1 27q-2 24 -2 27q0 27 19 43
q-28 20 -28 46q0 38 69 58q48 13 101 13q50 0 96 -8q67 -12 73 -38q17 5 31 5q73 0 136 -105q57 -95 57 -175zM399 312q-11 15 -37 72q-16 34 -60 68q-10 9 -18 9q-17 0 -30 -24.5t-13 -43.5v-96q0 -11 -1 -31t-1 -28q0 -61 59 -61q17 0 20 13q1 5 0 27l14 -1q19 -1 29 42
q12 47 38 54z" />
    <glyph glyph-name="e" unicode="e" horiz-adv-x="474" 
d="M452 7q-42 -5 -94 -6q-35 -1 -94 0q-72 1 -94 1q-83 0 -134 -8q-5 16 -13 50l4 12q11 5 22 7q-16 17 -16 39q0 11 7 36t6 37l-1 12q-17 6 -24 20l2 8q9 10 26 14q-26 38 -26 95q0 21 4.5 63.5t4.5 63.5q0 32 -7 57q7 6 24 13l-14 15q-3 6 -3 28q0 12 -10 27q17 5 26 16
q3 10 1 39l14 -25q19 0 63 10q40 9 61 7q33 -2 83 0q67 3 81 3q47 0 74 -22l14 27q10 -19 10 -43q0 -17 -6.5 -50t-6.5 -50q0 -12 3 -23q-17 0 -53.5 4.5t-55.5 4.5q-90 0 -90 -52q0 -39 52 -47q48 -4 96 -9q52 -10 52 -55q0 -58 -7 -88l-12 -9l-9 2l-16 23l-9 1l-11 -3
l-8 -15l1 -8q-38 21 -67 21t-49.5 -23.5t-20.5 -52.5q0 -14 12 -28q16 11 27 12q8 -10 15 -25q30 20 81 20h18q33 1 54 7q1 -77 13 -153z" />
    <glyph glyph-name="f" unicode="f" horiz-adv-x="477" 
d="M455 620q-5 -34 -31 -59q18 -7 26 -17q4 -9 4 -28q0 -11 -7 -20q-21 -10 -47 -13q-19 -2 -49 -1q-45 2 -50 2q-34 0 -47 -9q-18 -11 -18 -44q0 -53 80 -53q8 0 25 1h24q70 0 70 -42q0 -26 -20 -65q1 -8 23 -25q-20 -13 -81 -15q-70 -3 -93 -11q-44 -15 -44 -59
q0 -8 24 -29q6 -25 6 -48q0 -43 -30 -70l27 -13q-11 3 -64 6q-39 2 -59 21l-8 -18q-17 -12 -37 -11l-50 2q7 21 7 50q0 13 -2 39t-2 39q0 49 21 78l-1 16q-11 9 -23 10q19 4 24 13q1 27 -15 120.5t-16 137.5q0 73 21 137q12 -10 39 -10q33 0 102 7.5t104 7.5q131 0 167 -27z
" />
    <glyph glyph-name="g" unicode="g" horiz-adv-x="657" 
d="M626 199q0 -61 -48 -121q-51 -63 -111 -63q-6 0 -19.5 4.5t-20.5 4.5l-11 -2q-9 -9 -14 -22q-7 1 -69 3q-41 0 -66 17q-19 -2 -38 -9q-15 4 -26 12l13 27q-94 14 -142 105q-39 76 -39 181q8 7 22 23l-2 7q-14 8 -25 19q55 114 90 159q68 86 152 86q12 0 34.5 -5.5
t32.5 -5.5q29 0 50 27q1 -1 83.5 -34.5t141.5 -84.5q-3 -2 -76 -47q-47 -28 -83 -28q-20 0 -51 25t-50 25q-55 0 -95 -67q-35 -58 -35 -117q0 -61 35 -113q39 -57 96 -57q64 0 64 45l-5 25q-5 6 -36 20q-25 11 -25 24q13 4 23 18l-3 7l-24 18l-2 16l4 20l11 9q96 0 161 -15
q36 18 51 18q55 0 55 -89q0 -13 -1.5 -35.5t-1.5 -29.5z" />
    <glyph glyph-name="h" unicode="h" horiz-adv-x="634" 
d="M606 522v-42q1 -38 1 -67q0 -186 -31 -219l24 -12q-9 -37 -9 -97q0 -19 13 -81q-20 7 -43 7q-16 0 -49 -5.5t-49 -5.5q-54 0 -67 60q-3 18 -3 102q0 47 -15 67q-17 24 -61 24q-71 0 -71 -97q0 -14 2 -39.5t2 -34.5q0 -46 -28 -78q-3 9 -13 23q-57 -16 -68 -16
q-24 0 -41 20l-7 -20l-11 -8l-8 2q-10 9 -15 26l-27 -14l-4 49q0 19 9 155q9 16 20 42l-3 19l-16 8l-6 -1q6 72 0 340q10 -6 23 -6q7 0 22 3t23 3q16 0 27 -12q18 29 76 29q37 0 47 -47q2 -14 2 -77q0 -62 -30 -110q57 -28 115 -28q69 0 69 56q0 10 -8.5 32.5t-7.5 34.5
q3 36 -5 136q27 -6 98 -9q62 -2 95 -14l12 23q16 -61 16 -121z" />
    <glyph glyph-name="i" unicode="i" horiz-adv-x="246" 
d="M235 98q1 -8 1 -16q0 -32 -14 -55q-16 -27 -44 -27q4 0 -93 11q-25 3 -46 -10q-22 50 -22 94q0 42 22 72q-29 22 -29 71q0 43 8.5 128.5t8.5 127.5q0 110 -16 144q21 -7 47 -7q17 0 51.5 7.5t51.5 7.5q43 0 72 -35q-24 -16 -24 -37q0 -20 24 -33l-28 -13q23 -41 23 -106
q0 -13 -1 -39t-1 -39q0 -30 3 -52l-21 -13z" />
    <glyph glyph-name="j" unicode="j" horiz-adv-x="354" 
d="M339 591q0 -15 -11.5 -42.5t-11.5 -37.5q0 -52 6 -158.5t6 -159.5q0 -72 -22 -103.5t-89 -62.5q-19 4 -29 10q-39 -37 -89 -37q-83 0 -83 65q0 13 5 40.5t5 40.5q0 19 -7 33q24 -9 42 -9q48 0 83 60q-1 2 -28 23l-4 16q0 9 32 49l-22 7l-6 13q7 63 7 80q0 21 -4 64t-4 64
q0 100 52 100h68q23 0 56 -11q37 -13 45 -29z" />
    <glyph glyph-name="k" unicode="k" horiz-adv-x="606" 
d="M579 27q-15 -22 -73 -22l-15 21l-18 -3l-8 -21q-7 9 -18 13l-28 -13q-33 13 -75 68q-39 52 -44 79q4 16 14 30q-28 12 -43 12q-26 0 -30 -64q-5 -78 -22 -98l27 -14q-18 3 -41 -13l-14 27q-55 -29 -96 -29q-43 0 -68 29l28 14q-28 29 -28 71q0 22 9.5 44.5t18.5 43.5
q-7 13 -23 17q14 52 14 126q0 39 -5 115t-5 110q0 27 19 47l-6 2q-10 3 -22 11l22 -11h4q38 27 170 27l13 -4q9 -10 9 -35q0 -15 -4 -43t-4 -36q0 -44 39 -53q13 8 19 30q9 37 34.5 62.5t51.5 50.5q-3 10 -12 26l30 2q39 2 79 -29q10 10 31 17q18 5 36 11q15 -6 29 -15
q-30 -43 -30 -68q-11 -6 -23 -17q-4 -12 -1 -28q-5 -5 -15 -10q-13 -5 -22 -39q-12 -44 -15 -49q-32 -15 -42 -25q-13 -15 -13 -46q0 -48 18 -67q24 -22 47 -44q-2 -13 -9 -28q51 -63 66 -85q34 -51 44 -97z" />
    <glyph glyph-name="l" unicode="l" horiz-adv-x="455" 
d="M434 73q0 -37 -62 -58q-46 -15 -93 -15q-32 0 -95 5t-94 5q-35 0 -65 -4q19 67 19 94q0 25 -20 66l24 18q-1 11 -11.5 26t-12.5 23q10 14 24 17q-21 86 -21 232q0 47 26 69q-33 8 -33 44q0 33 22 43q14 6 55 6q8 0 119 -10q6 4 13 12v-14q-1 -15 3 -41l8 -40l-22 -13
q3 -13 20 -41q-4 -198 -4 -201l1 -58q1 -74 40 -74q4 0 14.5 1t16.5 1q30 0 50 -20q21 4 37 24q41 -40 41 -97z" />
    <glyph glyph-name="m" unicode="m" horiz-adv-x="856" 
d="M818 78q0 -27 -4 -72l-8 -5q-66 10 -79 10q-23 0 -35 -7q-5 15 -13 25l-8 3l-37 -15l-7 3q-1 20 7 37q-34 80 -34 107q0 20 11 44l-28 14q23 19 27 47l-5 13l-21 5q-18 0 -33 -31l-22 -48l28 -13q-19 -13 -20.5 -55t-19 -54t-17.5 -20l3 -34l-13 -23q-18 -9 -39 -9
q-85 0 -85 86q0 15 -28 42l-3 17q0 11 5 27q7 23 8 27l-12 18h-1q-52 1 -60 -55q-15 -105 -15 -106q-24 -58 -115 -58q-16 0 -106 6q31 129 31 171q0 25 -4 47h28l-3 10q0 9 14 51l-4 11l-21 10q20 14 36 31v58q0 27 18 47q-11 3 -23 13l31 103l-8 34h28l-2 16l3 15l11 7
q64 5 153 3l39 -1l-2 -12q0 -10 12 -35q14 -29 16 -36l-12 -26l26 -13q-15 -18 -15 -42l2 -22l13 -13l13 -2q18 0 43.5 17t25.5 34l-1 12q-9 11 -26 16q20 20 38 78q18 53 25 58l50 -11l23 11q5 -19 15 -25l12 -2q6 0 25.5 13.5t25.5 15.5q58 -20 105 -266q38 -198 38 -302z
" />
    <glyph glyph-name="n" unicode="n" horiz-adv-x="680" 
d="M650 275q0 -209 -14 -259l-19 -12q-27 5 -65 3q-60 -4 -65 -4q-48 0 -86 49q-2 2 -64 103q-40 66 -83 91q-2 -14 -10 -34q-10 -24 -12 -34l5 -14l17 -13q-25 -18 -25 -41q7 -8 25 -13l-11 -19q6 -22 13 -38l-4 -9q-6 -4 -31 -4l-16 -4l-5 -21q-23 8 -40 8q-16 0 -48.5 -5
t-48.5 -5l-19 4l-8 16l2 7l23 16q-3 16 -17 57q-11 33 -11 70q0 32 6 94.5t6 93.5q0 36 -5 65q10 9 24 14q-33 51 -33 108q0 101 86 101q93 0 152 -58q31 -32 75 -115q35 -69 64 -80q16 5 27 34q9 24 9 45q0 20 -9 64q-8 41 -6 64l2 27q19 -1 41 14q5 -17 13 -24
q89 22 106 22q33 0 51 -20l7 -24q0 -11 -5 -35.5t-5 -35.5q0 -16 10 -42l-9 -11l-15 -6q25 -81 25 -190z" />
    <glyph glyph-name="o" unicode="o" horiz-adv-x="714" 
d="M681 282q0 -89 -117 -210q-10 0 -24 11q-15 -58 -88 -58q-12 0 -32 2q-4 -16 -21 -24l-33 -3q-20 0 -51.5 11.5t-52.5 11.5q-28 0 -73 32q-41 27 -61 53v16q1 5 -36 38.5t-37 68.5q0 12 4 25q-22 8 -27 43v57q0 120 97 207q94 83 216 83q336 0 336 -364zM471 318
q0 61 -22 99q-27 48 -83 48q-116 0 -116 -129q0 -46 27 -93q32 -54 74 -54q25 0 51 22q44 38 50 46q19 23 19 61z" />
    <glyph glyph-name="p" unicode="p" horiz-adv-x="553" 
d="M528 436q0 -114 -103 -171q-13 -1 -23 9q-21 -24 -66 -28q-57 -4 -67 -8q-32 -14 -37 -65l-7 -75q7 -8 24 -13l-11 -23q5 -15 12 -45l-4 -10l-17 -7l-18 3q-13 10 -17 27q-50 -27 -116 -27q-13 0 -31 8.5t-22 19.5q10 19 32 26q-10 30 -27 28q0 73 23 275q-7 7 -20 25
q2 31 -1 83q-4 60 -4 82q0 96 42 96q29 0 55 -28q4 11 14 24q29 0 38.5 -3t30.5 -21q5 18 13 24q138 0 209 -35q98 -49 98 -171zM318 429q0 22 -17 41.5t-38 19.5q-27 0 -27 -35q0 -22 27 -67q5 -3 12 -3q17 0 30 13.5t13 30.5z" />
    <glyph glyph-name="q" unicode="q" horiz-adv-x="676" 
d="M657 345q0 -70 -39 -171t-39 -97q0 -26 19 -49q7 -9 39 -38q-4 -21 -14 -24l-29 2q-26 2 -68 -16q-32 -15 -63 -30q-8 84 -124 84q7 0 -60 -2q-8 6 -14 23q-17 -9 -27 -12l-24 10q-11 16 -14 29q-13 -10 -26 -10q-26 0 -86 78q-53 67 -64 94q-9 22 -9 159q0 75 33 108
l46 36q-2 9 -14 25q43 24 87 49q50 25 91 25q18 0 35 -4q15 11 12 35q9 -3 58 -10q32 -5 56 -16l30 10q71 -24 103 -49q29 -22 47 -63q18 -51 37 -101q21 -55 21 -75zM450 279q-13 80 -27 115q-29 69 -84 69q-48 0 -82 -46q-32 -42 -32 -91q0 -59 44 -98q40 -35 102 -41v26
q10 -16 27 -16q8 5 15 42q7 32 37 40z" />
    <glyph glyph-name="r" unicode="r" horiz-adv-x="577" 
d="M551 16l-2 -11l-14 -5q-13 0 -39.5 4t-40.5 4q-8 0 -15 -1l-15 23q-10 -1 -21 -12q-14 -14 -19 -17q-90 41 -109 140q-25 -21 -38 -63q-8 -37 -17 -74q-22 11 -46 11q-15 0 -43 -4.5t-42 -4.5q-45 0 -58 53q-5 24 -5 89q0 45 27 61l-13 73q0 -3 0 83q0 27 -7 82.5
t-7 83.5q0 115 67 115q-14 0 86 -4q9 -9 14 -24q13 9 30 12q12 2 32 1q30 -2 32 -2q11 0 32 5.5t32 5.5q148 0 159 -186q13 -6 22 -15l4 -19l-3 -16q-9 -14 -26 -18q12 -17 12 -26q-10 -9 -26 -14l14 -28q-24 -5 -46 -20q-27 -19 -27 -40q0 -10 58 -101.5t58 -140.5z
M336 456q0 10 -32 23q-40 15 -41 16q-29 -50 -29 -62q0 -14 9 -24t23 -10q13 0 64 28v5q0 4 3 12t3 12z" />
    <glyph glyph-name="s" unicode="s" horiz-adv-x="534" 
d="M510 228q0 -36 -21 -65l9 -25q-46 -92 -150 -122q-13 4 -26 10l-22 -5q-7 -10 -6 -21l-14 27q-23 -7 -68 -27q-21 22 -66 28q-58 7 -72 13l14 28q-64 0 -64 37q0 79 18 91q28 0 83.5 -17.5t82.5 -17.5q51 0 73 32q-16 16 -42 53q-19 -7 -40 -7q-31 0 -59 17t-38 45l-6 -3
q-8 -6 -22 -11l22 11q2 2 3 4l1 5q0 6 -20 18q-25 17 -36 30q-20 24 -20 59q0 43 37 79l-28 14q15 5 30 38q19 43 30 56q24 29 64 29q19 0 39 -10q36 25 77 25l27 -2q18 -7 22 -26q23 17 50 17q29 0 66.5 -26t37.5 -53q0 -3 -3 -62l-14 1l-21 -8q-8 -16 -11 -33l-18 -4
q-7 0 -27 20t-43 20q-55 0 -62 -2q-31 -6 -36 -39l12 -14q74 0 162 -65q95 -69 95 -142z" />
    <glyph glyph-name="t" unicode="t" horiz-adv-x="518" 
d="M494 539q0 -28 -12 -50q-15 -28 -41 -28q-10 0 -30 6.5t-30 6.5q-17 0 -28 -10l10 -22q-2 -12 -10 -28q-11 -21 -13 -28q9 -13 27 -18q-9 -20 -9 -40q0 -12 4 -36.5t4 -36.5q0 -19 -7 -48q-8 -34 -20 -45q34 -8 34 -67q0 -56 -14 -77q-11 -17 -36 -17q-7 0 -24.5 2
t-27.5 2q-23 0 -42 -8l-13 27q-18 -16 -37 -16t-29 25q-9 19 -9 41q0 30 34 111q-5 8 -28 18l28 14q-20 27 -20 74q0 17 3.5 50.5t3.5 48.5q0 39 -22 65t-61 26q-27 0 -42 -17q2 11 -1.5 32.5t-3.5 28.5q0 20 19 34l-28 14q9 12 13 24q-4 12 -13 17q39 19 90 21
q-15 -1 93 -1q27 0 80.5 7.5t80.5 7.5q127 0 127 -110z" />
    <glyph glyph-name="u" unicode="u" horiz-adv-x="579" 
d="M553 471q0 -50 -8 -149t-8 -149q0 -28 -17 -52t-44 -31l14 -28q-32 0 -89 -31.5t-71 -31.5q-170 0 -238 70q-65 67 -63 228l1 78l22 14l1 9q0 8 -6 24t-6 23l3 13l10 12l-27 13q18 18 18 42q0 13 -7 39.5t-7 39.5q0 20 14 34q23 8 119 8q78 0 78 -149q-8 -4 -21 -14
q7 -18 22 -56q4 -10 4 -34q0 -23 -4 -69.5t-4 -54.5q0 -83 74 -99l-4 15l6 13q12 9 25 14q-11 32 -11 69q0 53 22 122q-16 3 -24 16q-3 15 -3 43q0 24 14 42l16 7q-32 30 -32 74q0 57 43 57q10 0 29.5 -4.5t28.5 -4.5q23 0 39 13q7 -9 20 -13q15 8 29 10q42 -73 42 -172z
" />
    <glyph glyph-name="v" unicode="v" horiz-adv-x="670" 
d="M639 604q-38 -48 -125 -279q-74 -193 -108 -309l-26 11q-5 -13 -22 -24l-29 -3q-45 0 -74 27q-18 17 -101 215q-73 173 -96 238q-27 77 -27 162h5q-7 0 38 -11l18 14q5 -19 15 -24l19 2l7 22l42 1q56 3 66 -42l-10 -27q9 -5 24 -17q1 -4 1 -35l2 -15q8 -12 26 -16
l-14 -27q17 -2 29 -33q13 -37 26 -45q33 6 38 40q1 33 3 65q14 -8 25 -11q8 15 8 28q0 7 -3.5 22t-3.5 26l2 14q17 2 32 8l8 19q-4 17 -14 31q107 18 155 15l37 -1l-4 -15l6 -13q12 -8 25 -13z" />
    <glyph glyph-name="w" unicode="w" horiz-adv-x="1006" 
d="M960 608q-4 -12 -20 -30.5t-20 -31.5l11 -30q-2 -4 -14 -47l-27 -16q9 -20 9 -41q0 -27 -19 -74q-14 -35 -28 -69t-24 -124q-9 -73 -33 -102q-36 -43 -129 -43q-59 0 -82 52q-14 53 -29 106q-17 65 -58 84q-18 -2 -46 -97q-35 -117 -44 -134l-10 7q-26 9 -94 9
q-17 0 -41 -13l-20 11q-23 25 -51 127t-28 154l-33 32q-14 60 -28 121.5t-43 114.5q28 7 26 24l-5 12q-21 7 -34 4q3 18 17 26l21 4q22 0 56 -30l6 16q12 16 45 16q50 0 84 -79q19 -57 39 -114q-16 -6 -24 -13l16 -29l28 -12l22 11q5 9 24 81q14 51 41 70q-17 21 -17 47
l10 28l23 10l73 -16l31 11q5 -17 14 -25q12 -3 28 -1q30 -25 42.5 -103.5t41.5 -106.5h1q26 -2 42 22q0 45 19 116q23 88 52 88q13 0 37.5 -6t37.5 -6t37 8.5t35 10.5l23 -11z" />
    <glyph glyph-name="x" unicode="x" horiz-adv-x="665" 
d="M635 16l-2 -14q-35 8 -102 8q-72 0 -104 5l1 10q1 11 -20 25q-15 10 -30 19q-5 19 -18 56q-80 -83 -96 -94q-45 -31 -125 -31q-60 0 -109 15q19 18 39 36.5t20 37.5q0 10 -4 23q41 13 49 28q6 24 48 106q41 79 41 81q0 36 -39 91q-37 50 -74 99q-39 62 -39 116
q44 13 89 13q145 0 158 -123q44 10 72 45t25 78q18 -3 111 -7q68 -3 107 -20q-63 -83 -80 -110q-41 -63 -56 -124q-2 -6 -20.5 -25t-22.5 -30q3 -13 19 -52q13 -28 9 -57q31 0 49 -31q16 -27 31 -53l-9 -24q25 -22 49 -45q33 -33 33 -52z" />
    <glyph glyph-name="y" unicode="y" horiz-adv-x="613" 
d="M586 597q0 -21 -47 -94q-63 -97 -87 -148q-46 -97 -46 -180q0 -23 13 -38l-28 -13q15 -18 15 -42q0 -14 -6 -40q-8 -29 -9 -40q-30 18 -53 25q-3 -3 -14 -25l-14 27q-30 -29 -56 -29q-54 0 -54 53l3 24q9 16 26 20q-8 12 -16 25q-12 18 -12 25l3 14l23 17q-2 10 -10 25
q-10 19 -12 25q8 13 24 17q-15 25 -40 77q5 19 14 30q-23 3 -44 36q-15 26 -31 52l-101 168q54 27 159 27h31q0 -13 8 -23q12 -4 32 -4q-12 -12 -12 -29q0 -24 21 -47.5t44 -23.5q30 0 44 36q21 52 37 67q36 35 120 35q27 0 48 -10q27 -14 27 -39z" />
    <glyph glyph-name="z" unicode="z" horiz-adv-x="665" 
d="M635 135q0 -15 -8 -45t-8 -45q0 -27 14 -42q-24 3 -52 3q-25 0 -74 -3t-74 -3q-22 0 -65 5.5t-65 5.5q-27 0 -81 -5.5t-81 -5.5q-54 0 -97 31l-14 -28q46 159 135 249q-3 9 -11 25l13 -2l22 11q8 25 6 45l24 4l12 10q0 18 18 52q22 40 26 52l-12 20q-19 11 -70 11
q-46 0 -67 16q-5 -20 -19 -27l-22 -3q-25 0 -41 16l27 14q-20 28 -25 72q-2 18 -2 78q45 -4 103 -4q26 0 119 3q74 1 119 0q24 -1 75 -9.5t75 -8.5q17 0 84 19q3 -17 7 -51q-57 -102 -69 -120q-45 -67 -100 -93q-3 -6 2 -19t6 -16q-21 -27 -41 -54q-27 -38 -27 -57
q-14 -8 -23 -18l-1 -10q-1 -19 39 -30q47 -14 56 -24l14 27q16 -24 41 -24q9 8 14 24q8 -6 21 -8q8 -1 22 0q18 2 23 2l15 -4q17 -12 17 -36z" />
    <glyph glyph-name="nonbreakingspace" unicode="&#xa0;" horiz-adv-x="252" 
 />
    <glyph glyph-name="quotedblleft" unicode="&#x201c;" horiz-adv-x="374" 
d="M365 701q-31 -6 -44 -42q-18 -51 -22 -56l33 -17q-15 -14 -15 -28q0 -11 15 -38q-13 -1 -15 -1q-20 0 -84 34q17 23 17 44q0 20 -18 59t-18 59q0 1 9 46q8 37 54 37q38 0 54 -37q23 -51 34 -60zM150 738q0 -15 -24 -51q-28 -42 -32 -54q2 -4 22 -28q16 -18 16 -30
t-15 -30t-26 -18h-2q-78 17 -78 130q0 13 1 38t1 36q0 26 -9 52q19 0 54 1t51 1q19 0 30 -14t11 -33z" />
    <glyph glyph-name="quotedblright" unicode="&#x201d;" horiz-adv-x="394" 
d="M370 633q-7 -6 -30 -17q13 -24 13 -30q0 -29 -94 -51q0 39 5 63q2 7 12 34q10 24 10 26q0 10 -17 29q-20 21 -24 29q3 10 11 30q-11 7 -21.5 13t-10.5 23q0 2 2 31q11 -33 20 -33q12 0 18 11t11 22q14 -12 50 -16q33 -3 44 -16l-4 -49q0 -44 5 -99zM173 757
q0 -24 -42 -158l30 -15l-34 -28q-22 -16 -40 -16q-23 0 -41 28q20 7 32.5 28t12.5 42q0 60 -62 60l-1 28q0 16 9.5 23.5t21.5 15.5v4q2 19 -30 44q36 -2 51 -4q25 -3 48 -10q15 4 33 14q12 -24 12 -56z" />
    <glyph glyph-name="quoteleft" unicode="&#x2018;" horiz-adv-x="279" 
d="M208 755q0 -17 -18 -47q1 -10 13 -31h-28q-4 -21 -3 -50q2 -55 2 -48q0 -47 -24 -47q-7 0 -39.5 32t-53.5 32q7 41 7 65q0 27 -3 73q-4 55 -4 74q16 -7 29 -7q10 0 30 3t29 3q18 0 40.5 -17t22.5 -35z" />
    <glyph glyph-name="quoteright" unicode="&#x2019;" horiz-adv-x="279" 
d="M188 664q0 -118 -70 -118q-48 0 -48 25q0 17 16.5 48.5t16.5 36.5q0 8 -43 25q-4 6 -3 9l11 38q0 25 -28 46q35 34 88 34q36 0 47 -32q2 -5 10 -63q3 -22 3 -49z" />
    <glyph glyph-name="HT" 
 />
    <glyph glyph-name="nonmarkingreturn" 
 />
    </font>
</defs>
</svg>
